<svg width="51" height="26" viewBox="0 0 51 26" fill="none" xmlns="http://www.w3.org/2000/svg">
<path d="M19.7832 11.3364L6.81299 25.1603L25.0739 19.0164L32.1565 21.8751L38.4285 0.115234L25.0739 13.9818L19.7832 11.3364Z" fill="black"/>
<path d="M8.3177 5.16788C8.3177 4.83189 8.1857 4.53989 7.9217 4.29189C7.6657 4.04388 7.3017 3.91988 6.8297 3.91988C6.4297 3.91988 6.1137 4.00389 5.8817 4.17189C5.6497 4.33189 5.5337 4.55189 5.5337 4.83189C5.5337 4.97589 5.5617 5.10788 5.6177 5.22788C5.6737 5.33988 5.7697 5.44389 5.9057 5.53989C6.0497 5.62788 6.2337 5.70788 6.4577 5.77988C6.6897 5.85188 6.9817 5.91989 7.3337 5.98389C8.2137 6.14389 8.8857 6.41189 9.3497 6.78789C9.8137 7.16389 10.0457 7.71988 10.0457 8.45588V8.59989C10.0457 8.99189 9.9737 9.34789 9.8297 9.66789C9.6937 9.97989 9.4937 10.2479 9.2297 10.4719C8.9657 10.6959 8.6457 10.8679 8.2697 10.9879C7.8937 11.1079 7.4697 11.1679 6.9977 11.1679C6.4457 11.1679 5.9577 11.0919 5.5337 10.9399C5.1177 10.7799 4.7697 10.5639 4.4897 10.2919C4.2097 10.0119 3.9977 9.68789 3.8537 9.31989C3.7097 8.94389 3.6377 8.53589 3.6377 8.09589V7.73589H5.2217V8.02389C5.2217 8.52789 5.3657 8.93189 5.6537 9.23589C5.9497 9.53189 6.4057 9.67989 7.0217 9.67989C7.5017 9.67989 7.8577 9.57589 8.0897 9.36789C8.3217 9.15989 8.4377 8.91189 8.4377 8.62389C8.4377 8.48789 8.4137 8.35989 8.3657 8.23989C8.3177 8.11189 8.2337 7.99988 8.1137 7.90388C7.9937 7.79988 7.8297 7.70788 7.6217 7.62788C7.4137 7.54788 7.1497 7.47989 6.8297 7.42389C6.4057 7.35189 6.0177 7.25989 5.6657 7.14789C5.3137 7.02789 5.0057 6.87188 4.7417 6.67988C4.4857 6.48788 4.2857 6.24789 4.1417 5.95989C3.9977 5.67189 3.9257 5.31989 3.9257 4.90389V4.83189C3.9257 4.48788 3.9937 4.17188 4.1297 3.88388C4.2737 3.58788 4.4697 3.33188 4.7177 3.11589C4.9737 2.89989 5.2777 2.73188 5.6297 2.61188C5.9897 2.49188 6.3897 2.43188 6.8297 2.43188C7.3257 2.43188 7.7657 2.50388 8.1497 2.64788C8.5337 2.78389 8.8537 2.97188 9.1097 3.21188C9.3737 3.45188 9.5697 3.72789 9.6977 4.03988C9.8337 4.35189 9.9017 4.67989 9.9017 5.02389V5.45589H8.3177V5.16788Z" fill="black"/>
<path d="M11.4414 5.04788H13.2054V2.59988H14.7174V5.04788H16.8654V6.48788H14.7174V9.19989C14.7174 9.43989 14.8254 9.55989 15.0414 9.55989H16.6494V10.9999H14.1294C13.8574 10.9999 13.6334 10.9119 13.4574 10.7359C13.2894 10.5599 13.2054 10.3359 13.2054 10.0639V6.48788H11.4414V5.04788Z" fill="black"/>
<path d="M18.789 5.04788H21.309V5.91189H21.525C21.637 5.58388 21.825 5.33189 22.089 5.15589C22.361 4.97188 22.685 4.87988 23.061 4.87988C23.653 4.87988 24.129 5.06788 24.489 5.44388C24.849 5.81188 25.029 6.37589 25.029 7.13589V7.39989L23.469 7.54389V7.37589C23.469 7.04788 23.385 6.78789 23.217 6.59589C23.049 6.39589 22.797 6.29589 22.461 6.29589C22.125 6.29589 21.861 6.41189 21.669 6.64389C21.477 6.87589 21.381 7.20789 21.381 7.63989V9.55989H22.749V10.9999H18.645V9.55989H19.869V6.48788H18.789V5.04788Z" fill="black"/>
<path d="M30.3967 10.1359C30.2367 10.5119 30.0127 10.7799 29.7247 10.9399C29.4367 11.0919 29.1007 11.1679 28.7167 11.1679C28.3567 11.1679 28.0167 11.0999 27.6967 10.9639C27.3847 10.8279 27.1087 10.6279 26.8687 10.3639C26.6287 10.0999 26.4367 9.77989 26.2927 9.40389C26.1567 9.02789 26.0887 8.59989 26.0887 8.11989V7.92789C26.0887 7.45588 26.1567 7.03189 26.2927 6.65589C26.4287 6.27989 26.6127 5.95989 26.8447 5.69588C27.0767 5.43189 27.3447 5.23189 27.6487 5.09589C27.9607 4.95188 28.2927 4.87988 28.6447 4.87988C29.0687 4.87988 29.4087 4.95188 29.6647 5.09589C29.9287 5.23989 30.1367 5.46389 30.2887 5.76789H30.5047V5.04788H32.0167V9.19989C32.0167 9.43989 32.1247 9.55989 32.3407 9.55989H32.5687V10.9999H31.5367C31.2647 10.9999 31.0407 10.9199 30.8647 10.7599C30.6967 10.5999 30.6127 10.3919 30.6127 10.1359H30.3967ZM29.0527 9.72789C29.4927 9.72789 29.8447 9.58389 30.1087 9.29589C30.3727 8.99989 30.5047 8.59989 30.5047 8.09589V7.95189C30.5047 7.44789 30.3727 7.05189 30.1087 6.76389C29.8447 6.46789 29.4927 6.31989 29.0527 6.31989C28.6127 6.31989 28.2607 6.46789 27.9967 6.76389C27.7327 7.05189 27.6007 7.44789 27.6007 7.95189V8.09589C27.6007 8.59989 27.7327 8.99989 27.9967 9.29589C28.2607 9.58389 28.6127 9.72789 29.0527 9.72789Z" fill="black"/>
<path d="M33.5923 5.04788H35.2243L36.6283 10.2799H36.8443L38.2483 5.04788H39.8803L38.1763 10.9999H35.2963L33.5923 5.04788Z" fill="black"/>
<path d="M45.332 10.1359C45.172 10.5119 44.948 10.7799 44.66 10.9399C44.372 11.0919 44.036 11.1679 43.652 11.1679C43.292 11.1679 42.952 11.0999 42.632 10.9639C42.32 10.8279 42.044 10.6279 41.804 10.3639C41.564 10.0999 41.372 9.77989 41.228 9.40389C41.092 9.02789 41.024 8.59989 41.024 8.11989V7.92789C41.024 7.45588 41.092 7.03189 41.228 6.65589C41.364 6.27989 41.548 5.95989 41.78 5.69588C42.012 5.43189 42.28 5.23189 42.584 5.09589C42.896 4.95188 43.228 4.87988 43.58 4.87988C44.004 4.87988 44.344 4.95188 44.6 5.09589C44.864 5.23989 45.072 5.46389 45.224 5.76789H45.44V5.04788H46.952V9.19989C46.952 9.43989 47.06 9.55989 47.276 9.55989H47.504V10.9999H46.472C46.2 10.9999 45.976 10.9199 45.8 10.7599C45.632 10.5999 45.548 10.3919 45.548 10.1359H45.332ZM43.988 9.72789C44.428 9.72789 44.78 9.58389 45.044 9.29589C45.308 8.99989 45.44 8.59989 45.44 8.09589V7.95189C45.44 7.44789 45.308 7.05189 45.044 6.76389C44.78 6.46789 44.428 6.31989 43.988 6.31989C43.548 6.31989 43.196 6.46789 42.932 6.76389C42.668 7.05189 42.536 7.44789 42.536 7.95189V8.09589C42.536 8.59989 42.668 8.99989 42.932 9.29589C43.196 9.58389 43.548 9.72789 43.988 9.72789Z" fill="black"/>
<path d="M5.78401 20.12C5.78401 20.992 5.54801 21.66 5.07601 22.124C4.60401 22.58 3.95601 22.808 3.13201 22.808C2.70801 22.808 2.32401 22.752 1.98001 22.64C1.63601 22.52 1.34001 22.348 1.09201 22.124C0.844012 21.892 0.652012 21.612 0.516012 21.284C0.380012 20.948 0.312012 20.56 0.312012 20.12V19.328H1.89601V20.12C1.89601 20.496 2.00001 20.792 2.20801 21.008C2.41601 21.216 2.70801 21.32 3.08401 21.32C3.43601 21.32 3.70801 21.216 3.90001 21.008C4.10001 20.8 4.20001 20.504 4.20001 20.12V15.728H3.33601V14.24H6.50401V15.728H5.78401V20.12Z" fill="black"/>
<path d="M13.8157 19.736C13.8157 20.232 13.7317 20.672 13.5637 21.056C13.3957 21.432 13.1677 21.752 12.8797 22.016C12.5917 22.272 12.2597 22.468 11.8837 22.604C11.5157 22.74 11.1277 22.808 10.7197 22.808C10.3117 22.808 9.91967 22.74 9.54367 22.604C9.17567 22.468 8.84767 22.272 8.55967 22.016C8.27167 21.752 8.04367 21.432 7.87567 21.056C7.70767 20.672 7.62367 20.232 7.62367 19.736V19.592C7.62367 19.104 7.70767 18.672 7.87567 18.296C8.04367 17.912 8.27167 17.588 8.55967 17.324C8.84767 17.06 9.17567 16.86 9.54367 16.724C9.91967 16.588 10.3117 16.52 10.7197 16.52C11.1277 16.52 11.5157 16.588 11.8837 16.724C12.2597 16.86 12.5917 17.06 12.8797 17.324C13.1677 17.588 13.3957 17.912 13.5637 18.296C13.7317 18.672 13.8157 19.104 13.8157 19.592V19.736ZM10.7197 21.368C10.9357 21.368 11.1397 21.332 11.3317 21.26C11.5237 21.188 11.6917 21.084 11.8357 20.948C11.9797 20.812 12.0917 20.648 12.1717 20.456C12.2597 20.256 12.3037 20.032 12.3037 19.784V19.544C12.3037 19.296 12.2597 19.076 12.1717 18.884C12.0917 18.684 11.9797 18.516 11.8357 18.38C11.6917 18.244 11.5237 18.14 11.3317 18.068C11.1397 17.996 10.9357 17.96 10.7197 17.96C10.5037 17.96 10.2997 17.996 10.1077 18.068C9.91567 18.14 9.74767 18.244 9.60367 18.38C9.45967 18.516 9.34367 18.684 9.25567 18.884C9.17567 19.076 9.13567 19.296 9.13567 19.544V19.784C9.13567 20.032 9.17567 20.256 9.25567 20.456C9.34367 20.648 9.45967 20.812 9.60367 20.948C9.74767 21.084 9.91567 21.188 10.1077 21.26C10.2997 21.332 10.5037 21.368 10.7197 21.368Z" fill="black"/>
<path d="M19.4833 16.688H20.9953V22.64H19.4833V21.776H19.2673C19.0033 22.464 18.4353 22.808 17.5633 22.808C17.2673 22.808 16.9913 22.76 16.7353 22.664C16.4793 22.568 16.2553 22.42 16.0633 22.22C15.8713 22.02 15.7193 21.772 15.6073 21.476C15.5033 21.172 15.4513 20.816 15.4513 20.408V16.688H16.9633V20.096C16.9633 20.52 17.0633 20.852 17.2633 21.092C17.4633 21.324 17.7633 21.44 18.1633 21.44C18.6193 21.44 18.9513 21.296 19.1593 21.008C19.3753 20.712 19.4833 20.312 19.4833 19.808V16.688Z" fill="black"/>
<path d="M22.631 16.688H25.151V17.552H25.367C25.479 17.224 25.667 16.972 25.931 16.796C26.203 16.612 26.527 16.52 26.903 16.52C27.495 16.52 27.971 16.708 28.331 17.084C28.691 17.452 28.871 18.016 28.871 18.776V19.04L27.311 19.184V19.016C27.311 18.688 27.227 18.428 27.059 18.236C26.891 18.036 26.639 17.936 26.303 17.936C25.967 17.936 25.703 18.052 25.511 18.284C25.319 18.516 25.223 18.848 25.223 19.28V21.2H26.591V22.64H22.487V21.2H23.711V18.128H22.631V16.688Z" fill="black"/>
<path d="M31.8986 22.64H30.3866V16.688H31.8986V17.576H32.1146C32.2506 17.24 32.4706 16.98 32.7746 16.796C33.0786 16.612 33.4346 16.52 33.8426 16.52C34.1306 16.52 34.3986 16.568 34.6466 16.664C34.9026 16.752 35.1266 16.892 35.3186 17.084C35.5106 17.276 35.6586 17.52 35.7626 17.816C35.8746 18.112 35.9306 18.464 35.9306 18.872V22.64H34.4186V19.256C34.4186 18.832 34.3146 18.5 34.1066 18.26C33.9066 18.012 33.6146 17.888 33.2306 17.888C32.7826 17.888 32.4466 18.04 32.2226 18.344C32.0066 18.64 31.8986 19.04 31.8986 19.544V22.64Z" fill="black"/>
<path d="M41.7063 21.776C41.5463 22.152 41.3223 22.42 41.0343 22.58C40.7463 22.732 40.4103 22.808 40.0263 22.808C39.6663 22.808 39.3263 22.74 39.0063 22.604C38.6943 22.468 38.4183 22.268 38.1783 22.004C37.9383 21.74 37.7463 21.42 37.6023 21.044C37.4663 20.668 37.3983 20.24 37.3983 19.76V19.568C37.3983 19.096 37.4663 18.672 37.6023 18.296C37.7383 17.92 37.9223 17.6 38.1543 17.336C38.3863 17.072 38.6543 16.872 38.9583 16.736C39.2703 16.592 39.6023 16.52 39.9543 16.52C40.3783 16.52 40.7183 16.592 40.9743 16.736C41.2383 16.88 41.4463 17.104 41.5983 17.408H41.8143V16.688H43.3263V20.84C43.3263 21.08 43.4343 21.2 43.6503 21.2H43.8783V22.64H42.8463C42.5743 22.64 42.3503 22.56 42.1743 22.4C42.0063 22.24 41.9223 22.032 41.9223 21.776H41.7063ZM40.3623 21.368C40.8023 21.368 41.1543 21.224 41.4183 20.936C41.6823 20.64 41.8143 20.24 41.8143 19.736V19.592C41.8143 19.088 41.6823 18.692 41.4183 18.404C41.1543 18.108 40.8023 17.96 40.3623 17.96C39.9223 17.96 39.5703 18.108 39.3063 18.404C39.0423 18.692 38.9103 19.088 38.9103 19.592V19.736C38.9103 20.24 39.0423 20.64 39.3063 20.936C39.5703 21.224 39.9223 21.368 40.3623 21.368Z" fill="black"/>
<path d="M45.2859 21.2H47.374V15.68H45.358V14.24H48.886V21.2H50.83V22.64H45.2859V21.2Z" fill="black"/>
<path d="M13.4583 18.0777L19.7832 11.3364L25.0739 13.9818L27.9052 11.042C28.1634 11.1259 28.4338 11.1679 28.7167 11.1679C29.1007 11.1679 29.4367 11.0919 29.7247 10.9399C30.0127 10.7799 30.2367 10.5119 30.3967 10.1359H30.6127C30.6127 10.3919 30.6967 10.5999 30.8647 10.7599C31.0407 10.9199 31.2647 10.9999 31.5367 10.9999H32.5687V9.55989H32.3407C32.1247 9.55989 32.0167 9.43989 32.0167 9.19989V6.77289L33.6119 5.11644L35.2937 10.9909L33.6989 16.5239C33.3505 16.5432 33.0424 16.6339 32.7746 16.796C32.4706 16.98 32.2506 17.24 32.1146 17.576H31.8986V16.688H30.3866V21.1607L25.2304 19.0796C25.2563 18.7439 25.3498 18.4787 25.511 18.284C25.703 18.052 25.967 17.936 26.303 17.936C26.639 17.936 26.891 18.036 27.059 18.236C27.227 18.428 27.311 18.688 27.311 19.016V19.184L28.871 19.04V18.776C28.871 18.016 28.691 17.452 28.331 17.084C27.971 16.708 27.495 16.52 26.903 16.52C26.527 16.52 26.203 16.612 25.931 16.796C25.667 16.972 25.479 17.224 25.367 17.552H25.151V16.688H22.631V18.128H23.711V19.475L20.9953 20.3887V16.688H19.4833V19.808C19.4833 20.3108 19.3758 20.7101 19.1608 21.0059L17.9187 21.4238C17.6387 21.3846 17.4202 21.274 17.2633 21.092C17.0633 20.852 16.9633 20.52 16.9633 20.096L17.0047 14.2977L15.4513 15.9534V20.408C15.4513 20.816 15.5033 21.172 15.6073 21.476C15.6957 21.7096 15.809 21.9133 15.9472 22.0871L6.81299 25.1603L9.30469 22.5046C9.38238 22.5407 9.46204 22.5738 9.54367 22.604C9.91967 22.74 10.3117 22.808 10.7197 22.808C11.1277 22.808 11.5157 22.74 11.8837 22.604C12.2597 22.468 12.5917 22.272 12.8797 22.016C13.1677 21.752 13.3957 21.432 13.5637 21.056C13.7317 20.672 13.8157 20.232 13.8157 19.736V19.592C13.8157 19.104 13.7317 18.672 13.5637 18.296C13.5308 18.2209 13.4957 18.1481 13.4583 18.0777Z" fill="#B50000"/>
<path d="M10.3976 21.3397L12.291 19.3217C12.2995 19.3931 12.3037 19.4672 12.3037 19.544V19.784C12.3037 20.032 12.2597 20.256 12.1717 20.456C12.0917 20.648 11.9797 20.812 11.8357 20.948C11.6917 21.084 11.5237 21.188 11.3317 21.26C11.1397 21.332 10.9357 21.368 10.7197 21.368C10.6092 21.368 10.5018 21.3586 10.3976 21.3397Z" fill="#B50000"/>
<path d="M31.8986 21.771L32.1565 21.8751L33.3053 17.8896C33.2808 17.8885 33.2559 17.888 33.2306 17.888C32.7826 17.888 32.4466 18.04 32.2226 18.344C32.0066 18.64 31.8986 19.04 31.8986 19.544V21.771Z" fill="#B50000"/>
<path d="M36.0837 8.25028L38.4285 0.115234L35.2243 5.04788L36.0837 8.25028Z" fill="#B50000"/>
<path d="M29.1745 9.72406L30.492 8.35598C30.4533 8.73945 30.3255 9.05275 30.1087 9.29589C29.8695 9.5568 29.5581 9.69953 29.1745 9.72406Z" fill="#B50000"/>
</svg>
